<?xml version="1.0" encoding="UTF-8"?>
<svg width="30px" height="27px" viewBox="0 0 30 27" version="1.1" xmlns="http://www.w3.org/2000/svg" xmlns:xlink="http://www.w3.org/1999/xlink">
    <!-- Generator: Sketch 44.1 (41455) - http://www.bohemiancoding.com/sketch -->
    <title>car</title>
    <desc>Created with Sketch.</desc>
    <defs></defs>
    <g id="Mockups" stroke="none" stroke-width="1" fill="none" fill-rule="evenodd">
        <g id="Landing-Page_Ace-Campaign_PTDE_Teen_01" transform="translate(-381.000000, -3914.000000)" fill="#FF2A70">
            <g id="Step" transform="translate(333.000000, 3882.000000)">
                <path d="M54.5566979,50.7649967 C55.3381333,50.7649967 56.0035643,50.4901215 56.553011,49.940363 C57.1024577,49.3906045 57.3771769,48.7247959 57.3771769,47.9429171 C57.3771769,47.1732552 57.1024577,46.5135549 56.553011,45.9637964 C56.0035643,45.4140378 55.3381333,45.1391627 54.5566979,45.1391627 C53.7874726,45.1391627 53.1281464,45.4140378 52.5786997,45.9637964 C52.029253,46.5135549 51.7545337,47.1732552 51.7545337,47.9429171 C51.7545337,48.7247959 52.029253,49.3906045 52.5786997,49.940363 C53.1281464,50.4901215 53.7874726,50.7649967 54.5566979,50.7649967 Z M54.5566979,47.0083323 C54.8131064,47.0083323 55.0328818,47.0999573 55.2160307,47.2832102 C55.3991796,47.466463 55.4907527,47.6863631 55.4907527,47.9429171 C55.4907527,48.1994711 55.3991796,48.4193712 55.2160307,48.602624 C55.0328818,48.7858768 54.8131064,48.8775019 54.5566979,48.8775019 C54.3002895,48.8775019 54.0805141,48.7858768 53.8973652,48.602624 C53.7142163,48.4193712 53.6226432,48.1994711 53.6226432,47.9429171 C53.6226432,47.6863631 53.7142163,47.466463 53.8973652,47.2832102 C54.0805141,47.0999573 54.3002895,47.0083323 54.5566979,47.0083323 Z M71.4429424,50.7649967 C72.2121678,50.7649967 72.8714939,50.4901215 73.4209406,49.940363 C73.9703873,49.3906045 74.2451066,48.7247959 74.2451066,47.9429171 C74.2451066,47.1732552 73.9703873,46.5135549 73.4209406,45.9637964 C72.8714939,45.4140378 72.2121678,45.1391627 71.4429424,45.1391627 C70.661507,45.1391627 69.996076,45.4140378 69.4466293,45.9637964 C68.8971826,46.5135549 68.6224634,47.1732552 68.6224634,47.9429171 C68.6224634,48.7247959 68.8971826,49.3906045 69.4466293,49.940363 C69.996076,50.4901215 70.661507,50.7649967 71.4429424,50.7649967 Z M71.4429424,47.0083323 C71.6993508,47.0083323 71.9191262,47.0999573 72.1022751,47.2832102 C72.285424,47.466463 72.3769971,47.6863631 72.3769971,47.9429171 C72.3769971,48.1994711 72.285424,48.4193712 72.1022751,48.602624 C71.9191262,48.7858768 71.6993508,48.8775019 71.4429424,48.8775019 C71.1865339,48.8775019 70.9667585,48.7858768 70.7836096,48.602624 C70.6004607,48.4193712 70.5088876,48.1994711 70.5088876,47.9429171 C70.5088876,47.6863631 70.6004607,47.466463 70.7836096,47.2832102 C70.9667585,47.0999573 71.1865339,47.0083323 71.4429424,47.0083323 Z M76.0582716,43.0867412 C75.997222,42.7080187 75.9025965,42.1735392 75.7743923,41.4832869 C75.646188,40.7930345 75.4996711,40.0630884 75.3348371,39.2934264 C75.1700031,38.5237645 74.9868569,37.7785475 74.7853931,37.057753 C74.5839293,36.3369585 74.3733113,35.7627749 74.1535326,35.335185 C73.8727043,34.7609927 73.3659999,34.257055 72.6334043,33.8233566 C71.9008087,33.3896582 70.9545535,33.0262122 69.7946105,32.7330077 C69.3184233,32.6108391 68.8147714,32.5039432 68.2836396,32.4123168 C67.7525078,32.3206904 67.2000169,32.2443362 66.6261503,32.1832519 C66.0522837,32.1221676 65.4601112,32.0763551 64.8496148,32.045813 C64.2391185,32.0152708 63.6225264,32 62.9998202,32 C62.3771139,32 61.7605218,32.0152708 61.1500255,32.045813 C60.5395291,32.0763551 59.9473566,32.1221676 59.37349,32.1832519 C58.7996234,32.2443362 58.2471325,32.3206904 57.7160007,32.4123168 C57.1848689,32.5039432 56.681217,32.6108391 56.2050298,32.7330077 C55.0450868,33.0262122 54.0988316,33.3896582 53.366236,33.8233566 C52.6336404,34.257055 52.126936,34.7609927 51.8461077,35.335185 C51.626329,35.7627749 51.415711,36.3369585 51.2142472,37.057753 C51.0127834,37.7785475 50.8296372,38.5237645 50.6648032,39.2934264 C50.4999692,40.0630884 50.3534523,40.7930345 50.225248,41.4832869 C50.0970438,42.1735392 50.0024183,42.7080187 49.9413687,43.0867412 C49.2942425,43.526548 48.8089052,44.0732441 48.4853422,44.7268459 C48.1617791,45.3804477 48,46.1409355 48,47.0083323 L48,51.6995815 C48,52.3104243 48.1770413,52.8571204 48.5311292,53.3396862 C48.885217,53.822252 49.3308727,54.1612646 49.8681095,54.3567343 L49.8681095,56.3908306 C49.8681095,56.9039386 50.0512556,57.3437388 50.4175534,57.7102445 C50.7838512,58.0767501 51.2295069,58.2600002 51.7545337,58.2600002 L53.6226432,58.2600002 C54.1354601,58.2600002 54.5750109,58.0767501 54.9413087,57.7102445 C55.3076065,57.3437388 55.4907527,56.9039386 55.4907527,56.3908306 L55.4907527,54.521661 L70.5088876,54.521661 L70.5088876,56.3908306 C70.5088876,56.9039386 70.6920338,57.3437388 71.0583316,57.7102445 C71.4246294,58.0767501 71.8641802,58.2600002 72.3769971,58.2600002 L74.2451066,58.2600002 C74.7701334,58.2600002 75.2157891,58.0767501 75.5820869,57.7102445 C75.9483847,57.3437388 76.1315308,56.9039386 76.1315308,56.3908306 L76.1315308,54.3567343 C76.6687676,54.1612646 77.1144233,53.822252 77.4685111,53.3396862 C77.822599,52.8571204 77.9996403,52.3104243 77.9996403,51.6995815 L77.9996403,47.0083323 C77.9996403,46.1409355 77.8378612,45.3804477 77.5142981,44.7268459 C77.1907351,44.0732441 76.7053978,43.526548 76.0582716,43.0867412 Z M53.5310692,36.1598186 C53.6653784,35.8910478 53.9797793,35.6192268 54.4742813,35.3443476 C54.9687834,35.0694683 55.6220047,34.8220807 56.4339648,34.6021773 C57.2459249,34.3822739 58.2043898,34.2051321 59.3093882,34.0707467 C60.4143866,33.9363613 61.6445183,33.8691696 62.9998202,33.8691696 C64.355122,33.8691696 65.5852537,33.9363613 66.6902521,34.0707467 C67.7952505,34.2051321 68.7537154,34.3822739 69.5656755,34.6021773 C70.3776356,34.8220807 71.0308569,35.0694683 71.525359,35.3443476 C72.019861,35.6192268 72.3342619,35.8910478 72.4685711,36.1598186 C72.6028803,36.4408063 72.7402399,36.8134148 72.8806541,37.2776553 C73.0210682,37.7418958 73.1584278,38.2488877 73.292737,38.7986463 C73.4270462,39.3484048 73.5521961,39.91648 73.6681904,40.5028891 C73.7841847,41.0892982 73.89102,41.6329401 73.9886994,42.1338312 C73.89102,42.1093975 73.7963945,42.0849642 73.70482,42.0605304 C73.6132456,42.0360967 73.51862,42.0116634 73.4209406,41.9872297 C73.1645322,41.9261454 72.9020227,41.8711704 72.6334043,41.8223029 C72.3647859,41.7734355 72.0839618,41.7306772 71.7909235,41.6940266 L66.2220037,38.0473134 C66.014435,37.8884943 65.1518103,37.6014002 64.8954018,37.6441592 C64.6389934,37.6869182 64.4796566,37.8396268 64.3331375,38.0473134 C64.1866184,38.2672168 64.2904028,38.5482007 64.3331375,38.7986463 C64.3758722,39.0490918 64.6878331,39.6188654 64.8954018,39.7776845 L67.6664309,41.4557991 C66.8727856,41.4313654 66.5742627,41.3977694 65.701253,41.3916609 C64.8282432,41.3855525 63.9277746,41.3824983 62.9998202,41.3824983 L62.3404874,41.3824983 L56.9559366,37.7907607 C56.7361579,37.6441584 56.5011203,37.5952917 56.2508168,37.6441592 C56.0005133,37.6930266 55.802105,37.82741 55.6555859,38.0473134 C55.5090667,38.2549999 55.4632802,38.4871167 55.5182249,38.7436707 C55.5731695,39.0002247 55.7044243,39.2017997 55.911993,39.348402 L59.007194,41.4008235 C58.3722778,41.4130404 57.7617907,41.4313654 57.1757142,41.4557991 C56.5896377,41.4802328 56.0279895,41.5138287 55.4907527,41.5565877 C54.9535159,41.5993467 54.4407067,41.6573759 53.9523096,41.730677 C53.4639125,41.8039781 53.0060471,41.8894948 52.5786997,41.9872297 C52.4810203,42.0116634 52.3863948,42.0360967 52.2948203,42.0605304 C52.2032458,42.0849642 52.1086203,42.1093975 52.0109409,42.1338312 C52.1086203,41.6329401 52.2154556,41.0892982 52.3314499,40.5028891 C52.4474442,39.91648 52.5725941,39.3484048 52.7069033,38.7986463 C52.8412125,38.2488877 52.9785721,37.7418958 53.1189862,37.2776553 C53.2594004,36.8134148 53.39676,36.4408063 53.5310692,36.1598186 Z M53.6226432,56.3908306 L51.7545337,56.3908306 L51.7545337,54.521661 L53.6226432,54.521661 L53.6226432,56.3908306 Z M72.3769971,56.3908306 L72.3769971,54.521661 L74.2451066,54.521661 L74.2451066,56.3908306 L72.3769971,56.3908306 Z M76.1315308,51.6995815 C76.1315308,51.9561354 76.0399578,52.1760355 75.8568089,52.3592884 C75.67366,52.5425412 75.4538846,52.6341663 75.1974761,52.6341663 L50.8021642,52.6341663 C50.5457557,52.6341663 50.3259804,52.5425412 50.1428315,52.3592884 C49.9596825,52.1760355 49.8681095,51.9561354 49.8681095,51.6995815 L49.8681095,47.0083323 C49.8681095,46.1409355 50.1153568,45.459856 50.6098588,44.9650734 C51.1043609,44.4702907 51.9071515,44.0885197 53.0182549,43.8197489 C53.6043313,43.6731466 54.2636575,43.5631966 54.9962531,43.4898954 C55.7288487,43.4165943 56.5163772,43.3616193 57.3588621,43.3249687 C58.2013471,43.2883181 59.0957108,43.266939 60.0419802,43.2608305 C60.9882495,43.2547221 61.9741863,43.2516679 62.9998202,43.2516679 C64.025454,43.2516679 65.0113908,43.2547221 65.9576601,43.2608305 C66.9039295,43.266939 67.7982932,43.2883181 68.6407782,43.3249687 C69.4832631,43.3616193 70.2707916,43.4165943 71.0033872,43.4898954 C71.7359828,43.5631966 72.395309,43.6731466 72.9813855,43.8197489 C74.0924888,44.0885197 74.8952795,44.4702907 75.3897815,44.9650734 C75.8842835,45.459856 76.1315308,46.1409355 76.1315308,47.0083323 L76.1315308,51.6995815 Z" id="car"></path>
            </g>
        </g>
    </g>
</svg>