<?xml version="1.0" encoding="UTF-8"?>
<svg width="25px" height="25px" viewBox="0 0 25 25" version="1.1" xmlns="http://www.w3.org/2000/svg" xmlns:xlink="http://www.w3.org/1999/xlink">
    <!-- Generator: Sketch 45 (43475) - http://www.bohemiancoding.com/sketch -->
    <title>checkmark-circle</title>
    <desc>Created with Sketch.</desc>
    <defs></defs>
    <g id="Mockups" stroke="none" stroke-width="1" fill="none" fill-rule="evenodd">
        <g id="Landing-Page_Ace-Campaign_PTDE_Teen_01" transform="translate(-356.000000, -430.000000)" fill="#12BDCD">
            <path d="M368.5,455 C367.660667,455 366.840617,454.920738 366.039825,454.762211 C365.239033,454.603684 364.463947,454.370181 363.714543,454.061697 C362.965138,453.753212 362.250003,453.369754 361.569116,452.911311 C360.888229,452.452868 360.252315,451.928024 359.661357,451.336761 C359.070398,450.754067 358.547964,450.119969 358.094039,449.434447 C357.640114,448.748925 357.256853,448.033423 356.944245,447.287918 C356.631636,446.542413 356.396112,445.766928 356.237667,444.96144 C356.079222,444.155951 356,443.337622 356,442.506427 C356,441.666662 356.079222,440.846191 356.237667,440.044987 C356.396112,439.243783 356.631636,438.468299 356.944245,437.718509 C357.256853,436.968719 357.640114,436.253217 358.094039,435.571979 C358.547964,434.890742 359.070398,434.254502 359.661357,433.663239 C360.252315,433.071976 360.888229,432.549274 361.569116,432.095116 C362.250003,431.640957 362.965138,431.257499 363.714543,430.94473 C364.463947,430.631961 365.239033,430.396316 366.039825,430.237789 C366.840617,430.079262 367.660667,430 368.5,430 C369.330768,430 370.148677,430.079262 370.953751,430.237789 C371.758826,430.396316 372.536053,430.631961 373.285457,430.94473 C374.034862,431.257499 374.749997,431.640957 375.430884,432.095116 C376.111771,432.549274 376.747685,433.071976 377.338643,433.663239 C377.929602,434.254502 378.452036,434.890742 378.905961,435.571979 C379.359886,436.253217 379.741006,436.968719 380.049332,437.718509 C380.357658,438.468299 380.593182,439.243783 380.75591,440.044987 C380.918637,440.846191 381,441.666662 381,442.506427 C381,443.337622 380.918637,444.155951 380.75591,444.96144 C380.593182,445.766928 380.357658,446.542413 380.049332,447.287918 C379.741006,448.033423 379.359886,448.748925 378.905961,449.434447 C378.452036,450.119969 377.929602,450.754067 377.338643,451.336761 C376.747685,451.928024 376.111771,452.452868 375.430884,452.911311 C374.749997,453.369754 374.034862,453.753212 373.285457,454.061697 C372.536053,454.370181 371.758826,454.603684 370.953751,454.762211 C370.148677,454.920738 369.330768,455 368.5,455 Z M368.5,431.311054 C366.958368,431.311054 365.508828,431.604539 364.151336,432.191517 C362.793844,432.778495 361.607662,433.579686 360.592754,434.595116 C359.577847,435.610545 358.777067,436.797337 358.190391,438.155527 C357.603714,439.513717 357.31038,440.964003 357.31038,442.506427 C357.31038,444.048851 357.603714,445.499136 358.190391,446.857326 C358.777067,448.215517 359.577847,449.400166 360.592754,450.411311 C361.607662,451.422456 362.793844,452.221505 364.151336,452.808483 C365.508828,453.395461 366.958368,453.688946 368.5,453.688946 C370.041632,453.688946 371.491172,453.395461 372.848664,452.808483 C374.206156,452.221505 375.390197,451.422456 376.400822,450.411311 C377.411447,449.400166 378.210086,448.215517 378.796763,446.857326 C379.383439,445.499136 379.676773,444.048851 379.676773,442.506427 C379.676773,440.964003 379.383439,439.513717 378.796763,438.155527 C378.210086,436.797337 377.411447,435.610545 376.400822,434.595116 C375.390197,433.579686 374.206156,432.778495 372.848664,432.191517 C371.491172,431.604539 370.041632,431.311054 368.5,431.311054 Z M365.866393,447.763496 C365.780746,447.763496 365.697243,447.748501 365.615879,447.718509 C365.534515,447.688517 365.463858,447.639246 365.403905,447.570694 L361.459918,443.624679 C361.331448,443.496143 361.267215,443.341903 361.267215,443.161954 C361.267215,442.982004 361.331448,442.827764 361.459918,442.699229 C361.588387,442.570693 361.742548,442.506427 361.922405,442.506427 C362.102262,442.506427 362.256423,442.570693 362.384892,442.699229 L365.866393,446.182519 L374.615108,437.429306 C374.743577,437.300771 374.897738,437.236504 375.077595,437.236504 C375.257452,437.236504 375.411613,437.300771 375.540082,437.429306 C375.668552,437.557841 375.732785,437.712081 375.732785,437.892031 C375.732785,438.07198 375.668552,438.22622 375.540082,438.354756 L366.32888,447.570694 C366.268927,447.639246 366.19827,447.688517 366.116906,447.718509 C366.035543,447.748501 365.952039,447.763496 365.866393,447.763496 Z" id="checkmark-circle"></path>
        </g>
    </g>
</svg>