<?xml version="1.0" encoding="UTF-8"?>
<svg width="65px" height="49px" viewBox="0 0 65 49" version="1.1" xmlns="http://www.w3.org/2000/svg" xmlns:xlink="http://www.w3.org/1999/xlink">
    <!-- Generator: Sketch 46 (44423) - http://www.bohemiancoding.com/sketch -->
    <title>devices-gradient</title>
    <desc>Created with Sketch.</desc>
    <defs>
        <linearGradient x1="0%" y1="0%" x2="100%" y2="100%" id="linearGradient-1">
            <stop stop-color="#12BDCD" offset="0%"></stop>
            <stop stop-color="#29E8D5" offset="100%"></stop>
        </linearGradient>
    </defs>
    <g id="Referral-Program-Info-Page" stroke="none" stroke-width="1" fill="none" fill-rule="evenodd">
        <g id="Ambassador-Info-Page-V3" transform="translate(-688.000000, -711.000000)" fill="url(#linearGradient-1)">
            <path d="M725.387695,746.920573 L699.362305,746.920573 C698.02929,746.920573 696.886724,746.442062 695.93457,745.485026 C694.982417,744.52799 694.506348,743.36893 694.506348,742.007812 L694.506348,715.880859 C694.506348,714.541009 694.982417,713.392583 695.93457,712.435547 C696.886724,711.478511 698.02929,711 699.362305,711 L741.637695,711 C742.97071,711 744.113276,711.478511 745.06543,712.435547 C746.017583,713.392583 746.493652,714.541009 746.493652,715.880859 L746.493652,719.166667 C746.493652,719.613283 746.334963,719.996092 746.017578,720.315104 C745.700194,720.634116 745.319338,720.79362 744.875,720.79362 C744.430662,720.79362 744.049806,720.634116 743.732422,720.315104 C743.415037,719.996092 743.256348,719.613283 743.256348,719.166667 L743.256348,715.880859 C743.256348,715.434243 743.097658,715.051434 742.780273,714.732422 C742.462889,714.41341 742.082033,714.253906 741.637695,714.253906 L699.362305,714.253906 C698.917967,714.253906 698.537111,714.41341 698.219727,714.732422 C697.902342,715.051434 697.743652,715.434243 697.743652,715.880859 L697.743652,742.007812 C697.743652,742.475697 697.902342,742.869139 698.219727,743.188151 C698.537111,743.507163 698.917967,743.666667 699.362305,743.666667 L725.387695,743.666667 C725.832033,743.666667 726.212889,743.82617 726.530273,744.145182 C726.847658,744.464194 727.006348,744.847003 727.006348,745.29362 C727.006348,745.740237 726.847658,746.123045 726.530273,746.442057 C726.212889,746.761069 725.832033,746.920573 725.387695,746.920573 Z M725.387695,759.376419 L692.887695,759.376419 C691.533522,759.376419 690.380376,758.897908 689.428223,757.940872 C688.476069,756.983836 688,755.824777 688,754.463659 L688,751.209753 C688,750.741868 688.15869,750.348426 688.476074,750.029414 C688.793459,749.710402 689.174314,749.550898 689.618652,749.550898 L725.387695,749.550898 C725.832033,749.550898 726.212889,749.710402 726.530273,750.029414 C726.847658,750.348426 727.006348,750.741868 727.006348,751.209753 C727.006348,751.656369 726.847658,752.039178 726.530273,752.35819 C726.212889,752.677202 725.832033,752.836706 725.387695,752.836706 L691.237305,752.836706 L691.237305,754.463659 C691.237305,754.910276 691.395995,755.293084 691.713379,755.612096 C692.030763,755.931108 692.422198,756.090612 692.887695,756.090612 L725.387695,756.090612 C725.832033,756.090612 726.212889,756.250116 726.530273,756.569128 C726.847658,756.88814 727.006348,757.270948 727.006348,757.717565 C727.006348,758.185449 726.847658,758.578892 726.530273,758.897904 C726.212889,759.216916 725.832033,759.376419 725.387695,759.376419 Z M748.112305,760 L735.131348,760 C733.777174,760 732.624028,759.521489 731.671875,758.564453 C730.719722,757.607417 730.243652,756.448358 730.243652,755.08724 L730.243652,728.960286 C730.243652,727.599169 730.719722,726.440109 731.671875,725.483073 C732.624028,724.526037 733.777174,724.047526 735.131348,724.047526 L748.112305,724.047526 C749.466478,724.047526 750.619624,724.526037 751.571777,725.483073 C752.523931,726.440109 753,727.599169 753,728.960286 L753,755.08724 C753,756.448358 752.523931,757.607417 751.571777,758.564453 C750.619624,759.521489 749.466478,760 748.112305,760 Z M735.131348,727.333333 C734.687009,727.333333 734.306154,727.492837 733.98877,727.811849 C733.671385,728.130861 733.512695,728.51367 733.512695,728.960286 L733.512695,755.08724 C733.512695,755.533856 733.671385,755.916665 733.98877,756.235677 C734.306154,756.554689 734.687009,756.714193 735.131348,756.714193 L748.112305,756.714193 C748.577802,756.714193 748.969237,756.554689 749.286621,756.235677 C749.604005,755.916665 749.762695,755.533856 749.762695,755.08724 L749.762695,728.960286 C749.762695,728.51367 749.604005,728.130861 749.286621,727.811849 C748.969237,727.492837 748.577802,727.333333 748.112305,727.333333 L735.131348,727.333333 Z M741.637695,755.397045 C741.404947,755.397045 741.19336,755.354511 741.00293,755.269441 C740.812499,755.184371 740.632651,755.067402 740.463379,754.91853 C740.315266,754.769657 740.198894,754.594203 740.114258,754.392163 C740.029622,754.190122 739.987305,753.982767 739.987305,753.770092 C739.987305,753.53615 740.029622,753.323479 740.114258,753.132071 C740.198894,752.940664 740.315266,752.759893 740.463379,752.589754 C740.632651,752.440881 740.812499,752.323912 741.00293,752.238842 C741.19336,752.153772 741.404947,752.111238 741.637695,752.111238 C741.849285,752.111238 742.055582,752.153772 742.256592,752.238842 C742.457602,752.323912 742.632161,752.440881 742.780273,752.589754 C742.928386,752.759893 743.044759,752.940664 743.129395,753.132071 C743.21403,753.323479 743.256348,753.53615 743.256348,753.770092 C743.256348,753.982767 743.21403,754.190122 743.129395,754.392163 C743.044759,754.594203 742.928386,754.769657 742.780273,754.91853 C742.632161,755.067402 742.457602,755.184371 742.256592,755.269441 C742.055582,755.354511 741.849285,755.397045 741.637695,755.397045 Z" id="devices-gradient"></path>
        </g>
    </g>
</svg>