<?xml version="1.0" encoding="UTF-8"?>
<svg width="41px" height="30px" viewBox="0 0 41 30" version="1.1" xmlns="http://www.w3.org/2000/svg" xmlns:xlink="http://www.w3.org/1999/xlink">
    <!-- Generator: Sketch 44.1 (41455) - http://www.bohemiancoding.com/sketch -->
    <title>icon-circle-devices</title>
    <desc>Created with Sketch.</desc>
    <defs>
        <linearGradient x1="100%" y1="71.6966544%" x2="6.31045395%" y2="19.4469618%" id="linearGradient-1">
            <stop stop-color="#FCB11A" offset="0%"></stop>
            <stop stop-color="#223441" offset="100%"></stop>
        </linearGradient>
        <path d="M33.004,26 C32.74,26 32.484,25.894 32.298,25.708 C32.112,25.518 32.004,25.262 32.004,25 C32.004,24.738 32.11,24.478 32.298,24.292 C32.484,24.108 32.742,24 33.004,24 C33.266,24 33.526,24.106 33.708,24.292 C33.896,24.48 34.004,24.738 34.004,25 C34.004,25.262 33.898,25.522 33.708,25.708 C33.524,25.892 33.266,26 33.004,26" id="path-2"></path>
    </defs>
    <g id="Mockups" stroke="none" stroke-width="1" fill="none" fill-rule="evenodd">
        <g id="Landing-Page_Ace-Campaign_PTDE_Teen_01" transform="translate(-364.000000, -3362.000000)" fill-rule="nonzero">
            <g id="Step" transform="translate(334.000000, 3332.000000)">
                <g id="icon-circle-devices" transform="translate(30.000000, 30.000000)">
                    <g id="devices">
                        <path d="M23.004,22 L7.004,22 C5.35,22 4.004,20.654 4.004,19 L4.004,3 C4.004,1.346 5.35,0 7.004,0 L33.004,0 C34.658,0 36.004,1.346 36.004,3 L36.004,5 C36.004,5.552 35.556,6 35.004,6 C34.452,6 34.004,5.552 34.004,5 L34.004,3 C34.004,2.448 33.556,2 33.004,2 L7.004,2 C6.452,2 6.004,2.448 6.004,3 L6.004,19 C6.004,19.552 6.452,20 7.004,20 L23.004,20 C23.556,20 24.004,20.448 24.004,21 C24.004,21.552 23.556,22 23.004,22" id="Fill-1652" fill="#FF2A70"></path>
                        <path d="M23.004,30 L3.004,30 C1.35,30 0.004,28.654 0.004,27 L0.004,25 C0.004,24.448 0.452,24 1.004,24 L23.004,24 C23.556,24 24.004,24.448 24.004,25 C24.004,25.552 23.556,26 23.004,26 L2.004,26 L2.004,27 C2.004,27.552 2.452,28 3.004,28 L23.004,28 C23.556,28 24.004,28.448 24.004,29 C24.004,29.552 23.556,30 23.004,30" id="Fill-1653" fill="#FF2A70"></path>
                        <path d="M29.004,10 C28.452,10 28.004,10.448 28.004,11 L28.004,27 C28.004,27.552 28.452,28 29.004,28 L37.004,28 C37.556,28 38.004,27.552 38.004,27 L38.004,11 C38.004,10.448 37.556,10 37.004,10 L29.004,10 Z M37.004,30 L29.004,30 C27.35,30 26.004,28.654 26.004,27 L26.004,11 C26.004,9.346 27.35,8 29.004,8 L37.004,8 C38.658,8 40.004,9.346 40.004,11 L40.004,27 C40.004,28.654 38.658,30 37.004,30 L37.004,30 Z" id="Fill-1654" fill="#FF2A70"></path>
                        <g id="Fill-1655">
                            <use fill="#FF8BB2" fill-rule="evenodd" xlink:href="#path-2"></use>
                            <use fill="url(#linearGradient-1)" fill-rule="evenodd" style="mix-blend-mode: soft-light;" xlink:href="#path-2"></use>
                        </g>
                    </g>
                </g>
            </g>
        </g>
    </g>
</svg>