<?xml version="1.0" encoding="UTF-8"?>
<svg width="65px" height="65px" viewBox="0 0 65 65" version="1.1" xmlns="http://www.w3.org/2000/svg" xmlns:xlink="http://www.w3.org/1999/xlink">
    <!-- Generator: Sketch 46 (44423) - http://www.bohemiancoding.com/sketch -->
    <title>gift-gradient</title>
    <desc>Created with Sketch.</desc>
    <defs>
        <linearGradient x1="0%" y1="0%" x2="100%" y2="100%" id="linearGradient-1">
            <stop stop-color="#12BDCD" offset="0%"></stop>
            <stop stop-color="#29E8D5" offset="100%"></stop>
        </linearGradient>
    </defs>
    <g id="Referral-Program-Info-Page" stroke="none" stroke-width="1" fill="none" fill-rule="evenodd">
        <g id="Ambassador-Info-Page-V3" transform="translate(-688.000000, -1179.000000)" fill="url(#linearGradient-1)">
            <path d="M751.263104,1192.66838 L741.008736,1192.66838 C741.543168,1191.95544 741.960687,1191.16453 742.261305,1190.29563 C742.561923,1189.42673 742.71223,1188.51329 742.71223,1187.55527 C742.71223,1186.37446 742.489553,1185.26607 742.044193,1184.23008 C741.598833,1183.19408 740.992039,1182.28621 740.223792,1181.50643 C739.455546,1180.72665 738.548138,1180.11397 737.501542,1179.66838 C736.454945,1179.22279 735.341561,1179 734.161357,1179 C732.981152,1179 731.851067,1179.20608 730.771069,1179.61825 C729.69107,1180.03042 728.694592,1180.54284 727.781603,1181.15553 C726.868615,1181.76821 726.044711,1182.42545 725.309866,1183.12725 C724.575022,1183.82905 723.962661,1184.45844 723.472765,1185.01542 C722.893796,1185.68381 722.348238,1186.38003 721.836074,1187.10411 C721.32391,1187.8282 720.878556,1188.53556 720.5,1189.22622 C720.099176,1188.53556 719.648255,1187.8282 719.147225,1187.10411 C718.646195,1186.38003 718.09507,1185.68381 717.493834,1185.01542 C717.003937,1184.45844 716.397143,1183.82905 715.673433,1183.12725 C714.949722,1182.42545 714.131385,1181.76821 713.218397,1181.15553 C712.305408,1180.54284 711.30893,1180.03042 710.228931,1179.61825 C709.148933,1179.20608 708.007714,1179 706.805242,1179 C705.625037,1179 704.51722,1179.22279 703.481757,1179.66838 C702.446295,1180.11397 701.538887,1180.72665 700.759507,1181.50643 C699.980126,1182.28621 699.367765,1183.19408 698.922405,1184.23008 C698.477045,1185.26607 698.254368,1186.37446 698.254368,1187.55527 C698.254368,1188.51329 698.404675,1189.42673 698.705293,1190.29563 C699.005911,1191.16453 699.434564,1191.95544 699.991264,1192.66838 L689.703494,1192.66838 C689.235866,1192.66838 688.835048,1192.83547 688.501028,1193.16967 C688.167008,1193.50386 688,1193.91602 688,1194.40617 L688,1204.66581 C688,1205.13368 688.167008,1205.5347 688.501028,1205.86889 C688.835048,1206.20309 689.235866,1206.37018 689.703494,1206.37018 L691.406989,1206.37018 L691.406989,1238.88689 C691.406989,1240.2905 691.908011,1241.49357 692.910072,1242.49614 C693.912132,1243.49872 695.125721,1244 696.550874,1244 L744.449126,1244 C745.852011,1244 747.054466,1243.49872 748.056526,1242.49614 C749.058587,1241.49357 749.559609,1240.2905 749.559609,1238.88689 L749.559609,1206.37018 L751.263104,1206.37018 C751.753,1206.37018 752.164952,1206.20309 752.498972,1205.86889 C752.832992,1205.5347 753,1205.13368 753,1204.66581 L753,1194.40617 C753,1193.91602 752.832992,1193.50386 752.498972,1193.16967 C752.164952,1192.83547 751.753,1192.66838 751.263104,1192.66838 Z M726.044707,1187.2545 C727.380788,1185.71722 728.761384,1184.52528 730.186536,1183.67866 C731.611689,1182.83204 732.936616,1182.40874 734.161357,1182.40874 C735.586509,1182.40874 736.800098,1182.91002 737.802158,1183.9126 C738.804219,1184.91517 739.305242,1186.12938 739.305242,1187.55527 C739.305242,1188.95888 738.804219,1190.16195 737.802158,1191.16452 C736.800098,1192.1671 735.586509,1192.66838 734.161357,1192.66838 L722.637718,1192.66838 C722.927203,1191.91088 723.361422,1191.0587 723.940391,1190.11183 C724.519359,1189.16495 725.220791,1188.21252 726.044707,1187.2545 Z M725.610483,1240.59126 L715.356115,1240.59126 L715.356115,1196.11054 L725.610483,1196.11054 L725.610483,1240.59126 Z M701.694758,1187.55527 C701.694758,1186.12938 702.195781,1184.91517 703.197842,1183.9126 C704.199902,1182.91002 705.402357,1182.40874 706.805242,1182.40874 C708.05225,1182.40874 709.382744,1182.83204 710.796763,1183.67866 C712.210781,1184.52528 713.58581,1185.71722 714.921891,1187.2545 C715.745807,1188.21252 716.452806,1189.16495 717.042909,1190.11183 C717.633011,1191.0587 718.072797,1191.91088 718.362282,1192.66838 L706.805242,1192.66838 C705.402357,1192.66838 704.199902,1192.1671 703.197842,1191.16452 C702.195781,1190.16195 701.694758,1188.95888 701.694758,1187.55527 Z M691.406989,1196.11054 L711.949126,1196.11054 L711.949126,1202.96144 L691.406989,1202.96144 L691.406989,1196.11054 Z M694.847379,1238.88689 L694.847379,1206.37018 L711.949126,1206.37018 L711.949126,1240.59126 L696.550874,1240.59126 C696.083245,1240.59126 695.682427,1240.42417 695.348407,1240.08997 C695.014387,1239.75578 694.847379,1239.35476 694.847379,1238.88689 Z M746.152621,1238.88689 C746.152621,1239.35476 745.985613,1239.75578 745.651593,1240.08997 C745.317573,1240.42417 744.916755,1240.59126 744.449126,1240.59126 L729.050874,1240.59126 L729.050874,1206.37018 L746.152621,1206.37018 L746.152621,1238.88689 Z M749.559609,1202.96144 L729.050874,1202.96144 L729.050874,1196.11054 L749.559609,1196.11054 L749.559609,1202.96144 Z" id="gift-gradient"></path>
        </g>
    </g>
</svg>