<?xml version="1.0" encoding="UTF-8"?>
<svg width="54px" height="40px" viewBox="0 0 54 40" version="1.1" xmlns="http://www.w3.org/2000/svg" xmlns:xlink="http://www.w3.org/1999/xlink">
    <!-- Generator: Sketch 44.1 (41455) - http://www.bohemiancoding.com/sketch -->
    <title>check</title>
    <desc>Created with Sketch.</desc>
    <defs></defs>
    <g id="Styles" stroke="none" stroke-width="1" fill="none" fill-rule="evenodd">
        <g id="Icons" transform="translate(-300.000000, -512.000000)" fill="#48CFAD">
            <path d="M314.661458,552 C314.487846,552 314.318577,551.969618 314.153646,551.908854 C313.988714,551.84809 313.845487,551.748265 313.723958,551.609375 L300.390625,538.276042 C300.130207,538.015624 300,537.703127 300,537.338542 C300,536.973957 300.130207,536.66146 300.390625,536.401042 C300.651043,536.140624 300.96354,536.010417 301.328125,536.010417 C301.69271,536.010417 302.005207,536.140624 302.265625,536.401042 L314.661458,548.796875 L351.067708,512.390625 C351.328126,512.130207 351.640623,512 352.005208,512 C352.369793,512 352.68229,512.130207 352.942708,512.390625 C353.203126,512.651043 353.333333,512.96788 353.333333,513.341146 C353.333333,513.714412 353.203126,514.031249 352.942708,514.291667 L315.598958,551.609375 C315.47743,551.748265 315.334202,551.84809 315.169271,551.908854 C315.004339,551.969618 314.83507,552 314.661458,552 Z" id="check"></path>
        </g>
    </g>
</svg>