<?xml version="1.0" encoding="UTF-8"?>
<svg width="29px" height="20px" viewBox="0 0 29 20" version="1.1" xmlns="http://www.w3.org/2000/svg" xmlns:xlink="http://www.w3.org/1999/xlink">
    <!-- Generator: Sketch 44.1 (41455) - http://www.bohemiancoding.com/sketch -->
    <title>icon-circle-license</title>
    <desc>Created with Sketch.</desc>
    <defs></defs>
    <g id="Mockups" stroke="none" stroke-width="1" fill="none" fill-rule="evenodd">
        <g id="Landing-Page_Ace-Campaign_PTDE_Teen_01" transform="translate(-381.000000, -3697.000000)" fill-rule="nonzero" fill="#FF2A70">
            <g id="Step" transform="translate(333.000000, 3662.000000)">
                <g id="icon-circle-license" transform="translate(48.000000, 35.000000)">
                    <g id="license">
                        <path d="M2.14571429,1.42857143 C1.75142857,1.42857143 1.43142857,1.74857143 1.43142857,2.14285714 L1.43142857,17.8571429 C1.43142857,18.2514286 1.75142857,18.5714286 2.14571429,18.5714286 L26.4314286,18.5714286 C26.8257143,18.5714286 27.1457143,18.2514286 27.1457143,17.8571429 L27.1457143,2.14285714 C27.1457143,1.74857143 26.8257143,1.42857143 26.4314286,1.42857143 L2.14571429,1.42857143 Z M26.4314286,20 L2.14571429,20 C0.964285714,20 0.00285714286,19.0385714 0.00285714286,17.8571429 L0.00285714286,2.14285714 C0.00285714286,0.961428571 0.964285714,0 2.14571429,0 L26.4314286,0 C27.6128571,0 28.5742857,0.961428571 28.5742857,2.14285714 L28.5742857,17.8571429 C28.5742857,19.0385714 27.6128571,20 26.4314286,20 L26.4314286,20 Z" id="Fill-1003"></path>
                        <path d="M5.88442857,14.2857143 L11.2644286,14.2857143 C11.2144286,14.1628571 11.1487143,14.0328571 11.0644286,13.9042857 C10.6044286,13.2085714 9.76728571,12.8571429 8.57442857,12.8571429 C7.38157143,12.8571429 6.54442857,13.21 6.08442857,13.9042857 C6.00014286,14.0328571 5.93442857,14.1614286 5.88442857,14.2857143 M12.1472857,15.7142857 L12.1458571,15.7142857 L5.003,15.7142857 C4.60871429,15.7142857 4.28871429,15.3942857 4.28871429,15 C4.28871429,14.9057143 4.30442857,14.0557143 4.843,13.1928571 C5.34585714,12.3885714 6.40157143,11.4285714 8.57442857,11.4285714 C10.7472857,11.4285714 11.8015714,12.3885714 12.3058571,13.1928571 C12.7887143,13.9657143 12.8515714,14.7271429 12.8601429,14.9457143 C12.8615714,14.9628571 12.8615714,14.9814286 12.8615714,15 C12.8615714,15.3942857 12.5415714,15.7142857 12.1472857,15.7142857" id="Fill-1004"></path>
                        <path d="M23.5742857,7.14285714 L16.4314286,7.14285714 C16.0371429,7.14285714 15.7171429,6.82285714 15.7171429,6.42857143 C15.7171429,6.03428571 16.0371429,5.71428571 16.4314286,5.71428571 L23.5742857,5.71428571 C23.9685714,5.71428571 24.2885714,6.03428571 24.2885714,6.42857143 C24.2885714,6.82285714 23.9685714,7.14285714 23.5742857,7.14285714" id="Fill-1005"></path>
                        <path d="M22.1457143,10 L16.4314286,10 C16.0371429,10 15.7171429,9.68 15.7171429,9.28571429 C15.7171429,8.89142857 16.0371429,8.57142857 16.4314286,8.57142857 L22.1457143,8.57142857 C22.54,8.57142857 22.86,8.89142857 22.86,9.28571429 C22.86,9.68 22.54,10 22.1457143,10" id="Fill-1006"></path>
                        <path d="M22.1457143,12.8571429 L16.4314286,12.8571429 C16.0371429,12.8571429 15.7171429,12.5371429 15.7171429,12.1428571 C15.7171429,11.7485714 16.0371429,11.4285714 16.4314286,11.4285714 L22.1457143,11.4285714 C22.54,11.4285714 22.86,11.7485714 22.86,12.1428571 C22.86,12.5371429 22.54,12.8571429 22.1457143,12.8571429" id="Fill-1007"></path>
                        <path d="M8.57428571,5.71428571 C7.78714286,5.71428571 7.14571429,6.35571429 7.14571429,7.14285714 C7.14571429,7.93 7.78714286,8.57142857 8.57428571,8.57142857 C9.36142857,8.57142857 10.0028571,7.93 10.0028571,7.14285714 C10.0028571,6.35571429 9.36142857,5.71428571 8.57428571,5.71428571 M8.57428571,10 C6.99857143,10 5.71714286,8.71857143 5.71714286,7.14285714 C5.71714286,5.56714286 6.99857143,4.28571429 8.57428571,4.28571429 C10.15,4.28571429 11.4314286,5.56714286 11.4314286,7.14285714 C11.4314286,8.71857143 10.15,10 8.57428571,10" id="Fill-1008"></path>
                        <path d="M23.5742857,15.7142857 L16.4314286,15.7142857 C16.0371429,15.7142857 15.7171429,15.3942857 15.7171429,15 C15.7171429,14.6057143 16.0371429,14.2857143 16.4314286,14.2857143 L23.5742857,14.2857143 C23.9685714,14.2857143 24.2885714,14.6057143 24.2885714,15 C24.2885714,15.3942857 23.9685714,15.7142857 23.5742857,15.7142857" id="Fill-1009"></path>
                    </g>
                </g>
            </g>
        </g>
    </g>
</svg>