<?xml version="1.0" encoding="UTF-8"?>
<svg width="65px" height="51px" viewBox="0 0 65 51" version="1.1" xmlns="http://www.w3.org/2000/svg" xmlns:xlink="http://www.w3.org/1999/xlink">
    <!-- Generator: Sketch 46 (44423) - http://www.bohemiancoding.com/sketch -->
    <title>money-bills-gradient</title>
    <desc>Created with Sketch.</desc>
    <defs>
        <linearGradient x1="0%" y1="0%" x2="100%" y2="100%" id="linearGradient-1">
            <stop stop-color="#12BDCD" offset="0%"></stop>
            <stop stop-color="#29E8D5" offset="100%"></stop>
        </linearGradient>
    </defs>
    <g id="Referral-Program-Info-Page" stroke="none" stroke-width="1" fill="none" fill-rule="evenodd">
        <g id="Ambassador-Info-Page-V3" transform="translate(-688.000000, -945.000000)" fill="url(#linearGradient-1)">
            <path d="M751.263104,996 L689.703494,996 C689.235866,996 688.835048,995.833986 688.501028,995.501953 C688.167008,995.16992 688,994.760419 688,994.273438 L688,960.273438 C688,959.808591 688.167008,959.410158 688.501028,959.078125 C688.835048,958.746092 689.235866,958.580078 689.703494,958.580078 L751.263104,958.580078 C751.753,958.580078 752.164952,958.746092 752.498972,959.078125 C752.832992,959.410158 753,959.808591 753,960.273438 L753,994.273438 C753,994.760419 752.832992,995.16992 752.498972,995.501953 C752.164952,995.833986 751.753,996 751.263104,996 Z M691.406989,992.580078 L749.559609,992.580078 L749.559609,962 L691.406989,962 L691.406989,992.580078 Z M727.347379,975.580078 C727.815007,975.580078 728.215826,975.746092 728.549846,976.078125 C728.883866,976.410158 729.050874,976.808591 729.050874,977.273438 L729.050874,984.080078 C729.050874,984.544924 728.883866,984.943358 728.549846,985.275391 C728.215826,985.607424 727.815007,985.773438 727.347379,985.773438 L722.203494,985.773438 L722.203494,987.5 C722.203494,987.964846 722.036487,988.36328 721.702467,988.695312 C721.368446,989.027345 720.967628,989.193359 720.5,989.193359 C720.032372,989.193359 719.631554,989.027345 719.297533,988.695312 C718.963513,988.36328 718.796506,987.964846 718.796506,987.5 L718.796506,985.773438 L713.652621,985.773438 C713.184993,985.773438 712.784174,985.607424 712.450154,985.275391 C712.116134,984.943358 711.949126,984.544924 711.949126,984.080078 C711.949126,983.615232 712.116134,983.216799 712.450154,982.884766 C712.784174,982.552733 713.184993,982.386719 713.652621,982.386719 L725.610483,982.386719 L725.610483,979 L713.652621,979 C713.184993,979 712.784174,978.833986 712.450154,978.501953 C712.116134,978.16992 711.949126,977.760419 711.949126,977.273438 L711.949126,970.5 C711.949126,970.013018 712.116134,969.603517 712.450154,969.271484 C712.784174,968.939451 713.184993,968.773438 713.652621,968.773438 L718.796506,968.773438 L718.796506,967.080078 C718.796506,966.615232 718.963513,966.216799 719.297533,965.884766 C719.631554,965.552733 720.032372,965.386719 720.5,965.386719 C720.967628,965.386719 721.368446,965.552733 721.702467,965.884766 C722.036487,966.216799 722.203494,966.615232 722.203494,967.080078 L722.203494,968.773438 L727.347379,968.773438 C727.815007,968.773438 728.215826,968.939451 728.549846,969.271484 C728.883866,969.603517 729.050874,970.013018 729.050874,970.5 C729.050874,970.964846 728.883866,971.36328 728.549846,971.695312 C728.215826,972.027345 727.815007,972.193359 727.347379,972.193359 L715.356115,972.193359 L715.356115,975.580078 L727.347379,975.580078 Z M747.856115,955.193359 L693.143885,955.193359 C692.653989,955.193359 692.242037,955.027345 691.908016,954.695312 C691.573996,954.36328 691.406989,953.964846 691.406989,953.5 C691.406989,953.013018 691.573996,952.603517 691.908016,952.271484 C692.242037,951.939451 692.653989,951.773438 693.143885,951.773438 L747.856115,951.773438 C748.323743,951.773438 748.724562,951.939451 749.058582,952.271484 C749.392602,952.603517 749.559609,953.013018 749.559609,953.5 C749.559609,953.964846 749.392602,954.36328 749.058582,954.695312 C748.724562,955.027345 748.323743,955.193359 747.856115,955.193359 Z M744.449126,948.386719 L696.550874,948.386719 C696.083245,948.386719 695.682427,948.220705 695.348407,947.888672 C695.014387,947.556639 694.847379,947.158205 694.847379,946.693359 C694.847379,946.228513 695.014387,945.83008 695.348407,945.498047 C695.682427,945.166014 696.083245,945 696.550874,945 L744.449126,945 C744.916755,945 745.317573,945.166014 745.651593,945.498047 C745.985613,945.83008 746.152621,946.228513 746.152621,946.693359 C746.152621,947.158205 745.985613,947.556639 745.651593,947.888672 C745.317573,948.220705 744.916755,948.386719 744.449126,948.386719 Z" id="money-bills-gradient"></path>
        </g>
    </g>
</svg>