<?xml version="1.0" encoding="UTF-8"?>
<svg width="49px" height="65px" viewBox="0 0 49 65" version="1.1" xmlns="http://www.w3.org/2000/svg" xmlns:xlink="http://www.w3.org/1999/xlink">
    <!-- Generator: Sketch 46 (44423) - http://www.bohemiancoding.com/sketch -->
    <title>money-bag-gradient</title>
    <desc>Created with Sketch.</desc>
    <defs>
        <linearGradient x1="0%" y1="0%" x2="100%" y2="100%" id="linearGradient-1">
            <stop stop-color="#12BDCD" offset="0%"></stop>
            <stop stop-color="#29E8D5" offset="100%"></stop>
        </linearGradient>
    </defs>
    <g id="Referral-Program-Info-Page" stroke="none" stroke-width="1" fill="none" fill-rule="evenodd">
        <g id="Ambassador-Info-Page-V3" transform="translate(-696.000000, -1481.000000)" fill="url(#linearGradient-1)">
            <path d="M727.039714,1523.28648 C727.48633,1523.28648 727.869139,1523.44509 728.188151,1523.76232 C728.507163,1524.07955 728.666667,1524.46022 728.666667,1524.90434 L728.666667,1531.40752 C728.666667,1531.85164 728.507163,1532.23231 728.188151,1532.54954 C727.869139,1532.86677 727.48633,1533.02538 727.039714,1533.02538 L722.126953,1533.02538 L722.126953,1534.64324 C722.126953,1535.08736 721.96745,1535.46803 721.648438,1535.78526 C721.329425,1536.10249 720.946617,1536.2611 720.5,1536.2611 C720.053383,1536.2611 719.670575,1536.10249 719.351562,1535.78526 C719.03255,1535.46803 718.873047,1535.08736 718.873047,1534.64324 L718.873047,1533.02538 L713.960286,1533.02538 C713.51367,1533.02538 713.130861,1532.86677 712.811849,1532.54954 C712.492837,1532.23231 712.333333,1531.85164 712.333333,1531.40752 C712.333333,1530.94225 712.492837,1530.551 712.811849,1530.23377 C713.130861,1529.91654 713.51367,1529.75793 713.960286,1529.75793 L725.380859,1529.75793 L725.380859,1526.52221 L713.960286,1526.52221 C713.51367,1526.52221 713.130861,1526.36359 712.811849,1526.04636 C712.492837,1525.72913 712.333333,1525.34846 712.333333,1524.90434 L712.333333,1518.40117 C712.333333,1517.95705 712.492837,1517.57638 712.811849,1517.25915 C713.130861,1516.94192 713.51367,1516.78331 713.960286,1516.78331 L718.873047,1516.78331 L718.873047,1515.16545 C718.873047,1514.70018 719.03255,1514.30893 719.351562,1513.9917 C719.670575,1513.67447 720.053383,1513.51586 720.5,1513.51586 C720.946617,1513.51586 721.329425,1513.67447 721.648438,1513.9917 C721.96745,1514.30893 722.126953,1514.70018 722.126953,1515.16545 L722.126953,1516.78331 L727.039714,1516.78331 C727.48633,1516.78331 727.869139,1516.94192 728.188151,1517.25915 C728.507163,1517.57638 728.666667,1517.95705 728.666667,1518.40117 C728.666667,1518.84529 728.507163,1519.22596 728.188151,1519.54319 C727.869139,1519.86042 727.48633,1520.01903 727.039714,1520.01903 L715.58724,1520.01903 L715.58724,1523.28648 L727.039714,1523.28648 Z M740.852865,1513.95998 C741.554691,1515.12316 742.166122,1516.28631 742.687174,1517.44949 C743.208227,1518.61266 743.638887,1519.78639 743.979167,1520.97072 C744.319446,1522.15504 744.574652,1523.33935 744.744792,1524.52367 C744.914931,1525.70799 745,1526.91345 745,1528.14007 C745,1529.81081 744.845813,1531.35992 744.537435,1532.78746 C744.229057,1534.21499 743.766496,1535.53147 743.14974,1536.73694 C742.532983,1537.94242 741.767366,1539.02627 740.852865,1539.98853 C739.938363,1540.95079 738.875006,1541.80201 737.66276,1542.54222 C736.663189,1543.13438 735.573248,1543.64722 734.392904,1544.08077 C733.212559,1544.51432 731.915263,1544.87384 730.500977,1545.15935 C729.08669,1545.44485 727.550139,1545.65634 725.891276,1545.7938 C724.232414,1545.93127 722.43534,1546 720.5,1546 C718.56466,1546 716.767586,1545.93127 715.108724,1545.7938 C713.449861,1545.65634 711.91331,1545.44485 710.499023,1545.15935 C709.084737,1544.87384 707.782124,1544.51432 706.591146,1544.08077 C705.400168,1543.64722 704.30491,1543.13438 703.305339,1542.54222 C702.093093,1541.80201 701.029735,1540.95079 700.115234,1539.98853 C699.200733,1539.02627 698.440433,1537.94242 697.83431,1536.73694 C697.228187,1535.53147 696.770943,1534.21499 696.462565,1532.78746 C696.154187,1531.35992 696,1529.81081 696,1528.14007 C696,1526.91345 696.085069,1525.70799 696.255208,1524.52367 C696.425348,1523.33935 696.680554,1522.15504 697.020833,1520.97072 C697.361113,1519.78639 697.791773,1518.61266 698.312826,1517.44949 C698.833878,1516.28631 699.445309,1515.12316 700.147135,1513.95998 C700.721357,1512.98714 701.332788,1512.05133 701.981445,1511.15251 C702.630103,1510.2537 703.289385,1509.39719 703.95931,1508.58297 C704.629235,1507.76874 705.293834,1506.99154 705.953125,1506.25134 C706.612416,1505.51114 707.239797,1504.81325 707.835286,1504.15764 C708.707253,1503.1848 709.547305,1502.23313 710.355469,1501.30259 C711.163633,1500.37205 711.727212,1499.55784 712.046224,1498.85993 C711.514537,1498.5427 711.051977,1498.20962 710.658529,1497.86066 C710.26508,1497.51171 709.887589,1497.15748 709.526042,1496.79795 C709.20703,1496.48072 709.047526,1496.10005 709.047526,1495.65593 C709.047526,1495.21181 709.20703,1494.83114 709.526042,1494.51391 C709.802519,1494.23898 710.137476,1494.08565 710.530924,1494.05393 C710.924373,1494.02221 711.280597,1494.10151 711.599609,1494.29185 C711.578342,1494.2707 711.567708,1494.24955 711.567708,1494.2284 C711.567708,1494.20726 711.557075,1494.18611 711.535807,1494.16496 C711.046656,1492.748 710.37674,1491.45795 709.526042,1490.29478 C708.675343,1489.1316 707.643886,1488.10591 706.431641,1487.21767 C706.261501,1487.06963 706.117948,1486.89515 706.000977,1486.69424 C705.884005,1486.49333 705.814887,1486.27656 705.79362,1486.04392 C705.772352,1485.81129 705.804253,1485.58394 705.889323,1485.36188 C705.974393,1485.13982 706.101996,1484.9442 706.272135,1484.77501 C706.357205,1484.66927 706.628361,1484.42078 707.085612,1484.02953 C707.542863,1483.63828 708.122392,1483.2206 708.824219,1482.77648 C709.526045,1482.33236 710.318246,1481.93054 711.200846,1481.57101 C712.083446,1481.21148 712.992617,1481.02115 713.928385,1481 L714.024089,1481 C715.02366,1481 715.985998,1481.19033 716.911133,1481.57101 C717.836268,1481.95169 718.745438,1482.37465 719.638672,1482.83992 C720.383033,1483.19945 721.100799,1483.53253 721.791992,1483.83919 C722.483185,1484.14585 723.13715,1484.29917 723.753906,1484.29917 C724.072918,1484.29917 724.274956,1484.26216 724.360026,1484.18814 C724.445096,1484.11412 724.572699,1483.90792 724.742839,1483.56955 C724.976781,1483.12542 725.359589,1482.58614 725.891276,1481.95168 C726.422963,1481.31722 727.348084,1481 728.666667,1481 C729.73004,1481 730.655161,1481.21148 731.442057,1481.63446 C732.228954,1482.05743 732.882918,1482.52798 733.403971,1483.04612 C733.925024,1483.56426 734.318467,1484.0401 734.58431,1484.47365 C734.850153,1484.90719 734.993706,1485.14511 735.014974,1485.18741 C735.185114,1485.54694 735.227648,1485.91703 735.142578,1486.29771 C735.057508,1486.67838 734.85547,1486.98503 734.536458,1487.21767 C733.069003,1488.3174 731.936527,1489.5017 731.138997,1490.77062 C730.341467,1492.03954 729.761938,1493.21327 729.400391,1494.29185 C729.719403,1494.10151 730.070311,1494.02221 730.453125,1494.05393 C730.835939,1494.08565 731.16558,1494.23898 731.442057,1494.51391 C731.761069,1494.83114 731.920573,1495.21181 731.920573,1495.65593 C731.920573,1496.10005 731.761069,1496.48072 731.442057,1496.79795 C731.101778,1497.15748 730.73492,1497.51171 730.341471,1497.86066 C729.948023,1498.20962 729.474829,1498.5427 728.921875,1498.85993 C729.262154,1499.55784 729.831051,1500.37205 730.628581,1501.30259 C731.426111,1502.23313 732.27148,1503.1848 733.164714,1504.15764 C733.760203,1504.81325 734.387584,1505.51114 735.046875,1506.25134 C735.706166,1506.99154 736.365448,1507.76874 737.02474,1508.58297 C737.684031,1509.39719 738.343313,1510.2537 739.002604,1511.15251 C739.661896,1512.05133 740.278643,1512.98714 740.852865,1513.95998 Z M709.972656,1485.91703 C711.014762,1486.91102 711.881398,1487.93142 712.572591,1488.97828 C713.263784,1490.02514 713.811413,1491.03497 714.215495,1492.00781 C714.619577,1492.98065 714.917317,1493.88474 715.108724,1494.72011 C715.300131,1495.55548 715.427734,1496.23751 715.491536,1496.76623 C716.065758,1496.93542 716.762257,1497.06231 717.581055,1497.1469 C718.399852,1497.2315 719.372824,1497.27379 720.5,1497.27379 C721.627176,1497.27379 722.594831,1497.2315 723.402995,1497.1469 C724.211159,1497.06231 724.912974,1496.93542 725.508464,1496.76623 C725.572266,1496.21636 725.699869,1495.51318 725.891276,1494.65666 C726.082683,1493.80014 726.396374,1492.86962 726.832357,1491.86506 C727.26834,1490.8605 727.84787,1489.81894 728.570964,1488.74036 C729.294057,1487.66178 730.219178,1486.61494 731.346354,1485.5998 C731.069877,1485.28258 730.703019,1484.98121 730.245768,1484.69571 C729.788518,1484.4102 729.262156,1484.26745 728.666667,1484.26745 C728.347655,1484.26745 728.145617,1484.29917 728.060547,1484.36262 C727.975477,1484.42606 727.847874,1484.63754 727.677734,1484.99707 C727.443792,1485.44119 727.060984,1485.97519 726.529297,1486.59907 C725.99761,1487.22296 725.072489,1487.5349 723.753906,1487.5349 C722.754335,1487.5349 721.791997,1487.34456 720.866862,1486.96388 C719.941727,1486.58321 719.032557,1486.17082 718.139323,1485.7267 C717.394962,1485.34602 716.677195,1485.00765 715.986003,1484.71157 C715.29481,1484.41549 714.640845,1484.26745 714.024089,1484.26745 L713.992188,1484.26745 C713.290361,1484.26745 712.583228,1484.44192 711.870768,1484.79087 C711.158308,1485.13983 710.52561,1485.51521 709.972656,1485.91703 Z M720.5,1542.76428 C724.221807,1542.76428 727.417196,1542.48406 730.086263,1541.92362 C732.75533,1541.36318 734.95648,1540.49081 736.689779,1539.30649 C738.423077,1538.12217 739.693789,1536.60478 740.501953,1534.75427 C741.310117,1532.90376 741.714193,1530.69905 741.714193,1528.14007 C741.714193,1525.70798 741.363285,1523.44511 740.661458,1521.35139 C739.959632,1519.25768 739.066412,1517.31203 737.981771,1515.5144 C736.89713,1513.71676 735.70617,1512.05662 734.408854,1510.53392 C733.111539,1509.01122 731.888678,1507.61543 730.740234,1506.34651 C729.613059,1505.09874 728.618819,1503.96731 727.757487,1502.95217 C726.896155,1501.93704 726.27409,1500.96421 725.891276,1500.03367 C725.18945,1500.18172 724.397248,1500.30332 723.514648,1500.39849 C722.632049,1500.49366 721.627176,1500.54124 720.5,1500.54124 C719.372824,1500.54124 718.367951,1500.49366 717.485352,1500.39849 C716.602752,1500.30332 715.81055,1500.18172 715.108724,1500.03367 C714.704642,1500.96421 714.077261,1501.93704 713.226562,1502.95217 C712.375864,1503.96731 711.386941,1505.09874 710.259766,1506.34651 C709.090055,1507.61543 707.861877,1509.01122 706.575195,1510.53392 C705.288514,1512.05662 704.10287,1513.71676 703.018229,1515.5144 C701.933588,1517.31203 701.035051,1519.25768 700.322591,1521.35139 C699.610131,1523.44511 699.253906,1525.70798 699.253906,1528.14007 C699.253906,1530.69905 699.663299,1532.90376 700.482096,1534.75427 C701.300894,1536.60478 702.571606,1538.12217 704.294271,1539.30649 C706.016936,1540.49081 708.218086,1541.36318 710.897786,1541.92362 C713.577487,1542.48406 716.778193,1542.76428 720.5,1542.76428 Z" id="money-bag-gradient"></path>
        </g>
    </g>
</svg>