<?xml version="1.0" encoding="UTF-8"?>
<svg width="26px" height="30px" viewBox="0 0 26 30" version="1.1" xmlns="http://www.w3.org/2000/svg" xmlns:xlink="http://www.w3.org/1999/xlink">
    <!-- Generator: Sketch 44.1 (41455) - http://www.bohemiancoding.com/sketch -->
    <title>icon-circle-packet</title>
    <desc>Created with Sketch.</desc>
    <defs></defs>
    <g id="Mockups" stroke="none" stroke-width="1" fill="none" fill-rule="evenodd">
        <g id="Landing-Page_Ace-Campaign_PTDE_Teen_01" transform="translate(-371.000000, -3472.000000)" fill-rule="nonzero" fill="#FF2A70">
            <g id="Step" transform="translate(334.000000, 3442.000000)">
                <g id="icon-circle-packet" transform="translate(37.000000, 30.000000)">
                    <path d="M24,27.75 C24,28.164 23.664,28.5 23.25,28.5 L8.25,28.5 C7.836,28.5 7.5,28.164 7.5,27.75 L7.5,27 L20.25,27 C21.4905,27 22.5,25.9905 22.5,24.75 L22.5,7.5 L23.25,7.5 C23.664,7.5 24,7.836 24,8.25 L24,27.75 Z M4.5,24.75 L4.5,24 L17.25,24 C18.4905,24 19.5,22.9905 19.5,21.75 L19.5,4.5 L20.25,4.5 C20.664,4.5 21,4.836 21,5.25 L21,24.75 C21,25.164 20.664,25.5 20.25,25.5 L5.25,25.5 C4.836,25.5 4.5,25.164 4.5,24.75 L4.5,24.75 Z M1.5,21.75 L1.5,7.5 L5.25,7.5 C6.4905,7.5 7.5,6.4905 7.5,5.25 L7.5,1.5 L17.25,1.5 C17.664,1.5 18,1.836 18,2.25 L18,21.75 C18,22.164 17.664,22.5 17.25,22.5 L2.25,22.5 C1.836,22.5 1.5,22.164 1.5,21.75 L1.5,21.75 Z M6,1.8105 L6,5.25 C6,5.664 5.664,6 5.25,6 L1.8105,6 L6,1.8105 Z M23.25,6 L22.5,6 L22.5,5.25 C22.5,4.0095 21.4905,3 20.25,3 L19.5,3 L19.5,2.25 C19.5,1.0095 18.4905,0 17.25,0 L6,0 C5.8005,0 5.61,0.0795 5.469,0.219 L0.219,5.469 C0.078,5.61 0,5.8005 0,6 L0,21.75 C0,22.9905 1.0095,24 2.25,24 L3,24 L3,24.75 C3,25.9905 4.0095,27 5.25,27 L6,27 L6,27.75 C6,28.9905 7.0095,30 8.25,30 L23.25,30 C24.4905,30 25.5,28.9905 25.5,27.75 L25.5,8.25 C25.5,7.0095 24.4905,6 23.25,6 L23.25,6 Z" id="Fill-685"></path>
                </g>
            </g>
        </g>
    </g>
</svg>