<?xml version="1.0" encoding="UTF-8"?>
<svg width="40px" height="40px" viewBox="0 0 40 40" version="1.1" xmlns="http://www.w3.org/2000/svg" xmlns:xlink="http://www.w3.org/1999/xlink">
    <!-- Generator: Sketch 44.1 (41455) - http://www.bohemiancoding.com/sketch -->
    <title>cross</title>
    <desc>Created with Sketch.</desc>
    <defs></defs>
    <g id="Styles" stroke="none" stroke-width="1" fill="none" fill-rule="evenodd">
        <g id="Icons" transform="translate(-442.000000, -512.000000)" fill="#E9573E">
            <path d="M464.162162,532.015026 L481.54955,514.614576 C481.849851,514.314048 482,513.953421 482,513.532682 C482,513.111944 481.849851,512.751316 481.54955,512.450789 C481.249248,512.150261 480.883886,512 480.453453,512 C480.023021,512 479.657659,512.150261 479.357357,512.450789 L462,529.821187 L444.642643,512.450789 C444.342341,512.150261 443.976979,512 443.546547,512 C443.116114,512 442.750752,512.150261 442.45045,512.450789 C442.150149,512.751316 442,513.111944 442,513.532682 C442,513.953421 442.150149,514.314048 442.45045,514.614576 L459.837838,532.015026 L442.45045,549.385424 C442.150149,549.685952 442,550.046579 442,550.467318 C442,550.888056 442.150149,551.248684 442.45045,551.549211 C442.610611,551.709492 442.785785,551.824693 442.975976,551.894816 C443.166167,551.964939 443.36136,552 443.561562,552 C443.741743,552 443.926926,551.964939 444.117117,551.894816 C444.307308,551.824693 444.482482,551.709492 444.642643,551.549211 L462,534.178813 L479.357357,551.549211 C479.517518,551.709492 479.692692,551.824693 479.882883,551.894816 C480.073074,551.964939 480.258257,552 480.438438,552 C480.63864,552 480.833833,551.964939 481.024024,551.894816 C481.214215,551.824693 481.389389,551.709492 481.54955,551.549211 C481.849851,551.248684 482,550.888056 482,550.467318 C482,550.046579 481.849851,549.685952 481.54955,549.385424 L464.162162,532.015026 Z" id="cross"></path>
        </g>
    </g>
</svg>