<?xml version="1.0" encoding="UTF-8"?>
<svg width="29px" height="30px" viewBox="0 0 29 30" version="1.1" xmlns="http://www.w3.org/2000/svg" xmlns:xlink="http://www.w3.org/1999/xlink">
    <!-- Generator: Sketch 44.1 (41455) - http://www.bohemiancoding.com/sketch -->
    <title>icon-circle-road</title>
    <desc>Created with Sketch.</desc>
    <defs></defs>
    <g id="Mockups" stroke="none" stroke-width="1" fill="none" fill-rule="evenodd">
        <g id="Landing-Page_Ace-Campaign_PTDE_Teen_01" transform="translate(-381.000000, -3802.000000)" fill-rule="nonzero" fill="#FF2A70">
            <g id="Step" transform="translate(333.000000, 3772.000000)">
                <g id="icon-circle-road" transform="translate(48.000000, 30.000000)">
                    <g id="Group-32">
                        <path d="M0.75435,30 C0.70335,30 0.65085,29.9955 0.59985,29.9835 C0.19485,29.898 -0.06465,29.5005 0.02085,29.094 L6.02085,0.594 C6.10635,0.1905 6.50385,-0.069 6.90885,0.0165 C7.31385,0.102 7.57335,0.4995 7.48785,0.906 L1.48785,29.406 C1.41285,29.7585 1.10235,30 0.75435,30" id="Fill-2108"></path>
                        <path d="M27.7515,30 C27.405,30 27.093,29.757 27.018,29.406 L21.018,0.906 C20.9325,0.4995 21.192,0.102 21.597,0.0165 C22.002,-0.069 22.3995,0.1905 22.485,0.594 L28.485,29.094 C28.5705,29.5005 28.311,29.898 27.906,29.9835 C27.8535,29.994 27.8025,30 27.7515,30" id="Fill-2109"></path>
                        <path d="M14.253,4.5 C13.839,4.5 13.503,4.164 13.503,3.75 L13.503,0.75 C13.503,0.336 13.839,0 14.253,0 C14.667,0 15.003,0.336 15.003,0.75 L15.003,3.75 C15.003,4.164 14.667,4.5 14.253,4.5" id="Fill-2110"></path>
                        <path d="M14.253,15 C13.839,15 13.503,14.664 13.503,14.25 L13.503,8.25 C13.503,7.836 13.839,7.5 14.253,7.5 C14.667,7.5 15.003,7.836 15.003,8.25 L15.003,14.25 C15.003,14.664 14.667,15 14.253,15" id="Fill-2111"></path>
                        <path d="M14.253,30 C13.839,30 13.503,29.664 13.503,29.25 L13.503,20.25 C13.503,19.836 13.839,19.5 14.253,19.5 C14.667,19.5 15.003,19.836 15.003,20.25 L15.003,29.25 C15.003,29.664 14.667,30 14.253,30" id="Fill-2112"></path>
                    </g>
                </g>
            </g>
        </g>
    </g>
</svg>