<?xml version="1.0" encoding="UTF-8"?>
<svg width="32px" height="30px" viewBox="0 0 32 30" version="1.1" xmlns="http://www.w3.org/2000/svg" xmlns:xlink="http://www.w3.org/1999/xlink">
    <!-- Generator: Sketch 44.1 (41455) - http://www.bohemiancoding.com/sketch -->
    <title>icon-circle-writing-on-paper</title>
    <desc>Created with Sketch.</desc>
    <defs></defs>
    <g id="Mockups" stroke="none" stroke-width="1" fill="none" fill-rule="evenodd">
        <g id="Landing-Page_Ace-Campaign_PTDE_Teen_01" transform="translate(-372.000000, -3582.000000)" fill-rule="nonzero" fill="#FF2A70">
            <g id="Step" transform="translate(334.000000, 3552.000000)">
                <g id="icon-circle-writing-on-paper" transform="translate(38.000000, 30.000000)">
                    <g id="Group-23">
                        <path d="M22.8947368,30 L2.36842105,30 C1.06263158,30 0,28.9373684 0,27.6315789 L0,2.36842105 C0,1.06263158 1.06263158,0 2.36842105,0 L22.8947368,0 C24.2005263,0 25.2631579,1.06263158 25.2631579,2.36842105 L25.2631579,5.52631579 C25.2631579,5.96210526 24.9094737,6.31578947 24.4736842,6.31578947 C24.0378947,6.31578947 23.6842105,5.96210526 23.6842105,5.52631579 L23.6842105,2.36842105 C23.6842105,1.93263158 23.3305263,1.57894737 22.8947368,1.57894737 L2.36842105,1.57894737 C1.93263158,1.57894737 1.57894737,1.93263158 1.57894737,2.36842105 L1.57894737,27.6315789 C1.57894737,28.0673684 1.93263158,28.4210526 2.36842105,28.4210526 L22.8947368,28.4210526 C23.3305263,28.4210526 23.6842105,28.0673684 23.6842105,27.6315789 L23.6842105,21.3157895 C23.6842105,20.88 24.0378947,20.5263158 24.4736842,20.5263158 C24.9094737,20.5263158 25.2631579,20.88 25.2631579,21.3157895 L25.2631579,27.6315789 C25.2631579,28.9373684 24.2005263,30 22.8947368,30" id="Fill-760"></path>
                        <path d="M16.5789474,6.31578947 L5.52631579,6.31578947 C5.09052632,6.31578947 4.73684211,5.96210526 4.73684211,5.52631579 C4.73684211,5.09052632 5.09052632,4.73684211 5.52631579,4.73684211 L16.5789474,4.73684211 C17.0147368,4.73684211 17.3684211,5.09052632 17.3684211,5.52631579 C17.3684211,5.96210526 17.0147368,6.31578947 16.5789474,6.31578947" id="Fill-761"></path>
                        <path d="M19.7368421,9.47368421 L5.52631579,9.47368421 C5.09052632,9.47368421 4.73684211,9.12 4.73684211,8.68421053 C4.73684211,8.24842105 5.09052632,7.89473684 5.52631579,7.89473684 L19.7368421,7.89473684 C20.1726316,7.89473684 20.5263158,8.24842105 20.5263158,8.68421053 C20.5263158,9.12 20.1726316,9.47368421 19.7368421,9.47368421" id="Fill-762"></path>
                        <path d="M18.1578947,12.6315789 L5.52631579,12.6315789 C5.09052632,12.6315789 4.73684211,12.2778947 4.73684211,11.8421053 C4.73684211,11.4063158 5.09052632,11.0526316 5.52631579,11.0526316 L18.1578947,11.0526316 C18.5936842,11.0526316 18.9473684,11.4063158 18.9473684,11.8421053 C18.9473684,12.2778947 18.5936842,12.6315789 18.1578947,12.6315789" id="Fill-763"></path>
                        <path d="M13.4210526,15.7894737 L5.52631579,15.7894737 C5.09052632,15.7894737 4.73684211,15.4357895 4.73684211,15 C4.73684211,14.5642105 5.09052632,14.2105263 5.52631579,14.2105263 L13.4210526,14.2105263 C13.8568421,14.2105263 14.2105263,14.5642105 14.2105263,15 C14.2105263,15.4357895 13.8568421,15.7894737 13.4210526,15.7894737" id="Fill-764"></path>
                        <path d="M15.704617,19.3594737 L14.5551433,23.3810526 L18.5419854,22.4036842 L29.6783012,11.0557895 L26.8425117,8.22 L15.7030381,19.3594737 L15.704617,19.3594737 Z M13.4230381,25.2615789 C13.2114591,25.2615789 13.004617,25.1778947 12.8530381,25.02 C12.6572486,24.8178947 12.584617,24.5257895 12.6619854,24.2573684 L14.2409328,18.7310526 C14.2788275,18.6015789 14.3483012,18.4831579 14.4430381,18.39 L26.2851433,6.54789474 C26.593038,6.23842105 27.0935643,6.23842105 27.3998801,6.54789474 L31.3472485,10.4952632 C31.6551433,10.8 31.6567222,11.2973684 31.3535643,11.6052632 L19.5114591,23.67 C19.4088275,23.7742105 19.2793538,23.85 19.1356696,23.8831579 L13.6093539,25.2410526 C13.5477749,25.2552632 13.484617,25.2615789 13.4214591,25.2615789 L13.4230381,25.2615789 Z" id="Fill-765"></path>
                        <path d="M10.2631579,25.2631579 L5.52631579,25.2631579 C5.09052632,25.2631579 4.73684211,24.9094737 4.73684211,24.4736842 C4.73684211,24.0378947 5.09052632,23.6842105 5.52631579,23.6842105 L10.2631579,23.6842105 C10.6989474,23.6842105 11.0526316,24.0378947 11.0526316,24.4736842 C11.0526316,24.9094737 10.6989474,25.2631579 10.2631579,25.2631579" id="Fill-766"></path>
                    </g>
                </g>
            </g>
        </g>
    </g>
</svg>